MimicMSK_OpenSim_coordinates_FK_5s
version=1
nRows=7
nColumns=129
inDegrees=yes

# SIMM Motion File Header:
name MimicMSK_OpenSim_coordinates_FK_5s
datacolumns 129
datarows 7
otherdata 1
range 4.05371000 4.66070000
endheader
time	root_rx	root_ry	root_rz	root_tx	root_ty	root_tz	flex_extension	lat_bending	axial_rotation	Abs_r3	Abs_t1	Abs_t2	L4_L5_FE	L4_L5_LB	L4_L5_AR	L3_L4_FE	L3_L4_LB	L3_L4_AR	L2_L3_FE	L2_L3_LB	L2_L3_AR	L1_L2_FE	L1_L2_LB	L1_L2_AR	sternoclavicular_r2_r	sternoclavicular_r3_r	unrotscap_r3_r	unrotscap_r2_r	acromioclavicular_r2_r	acromioclavicular_r3_r	acromioclavicular_r1_r	unrothum_r1_r	unrothum_r3_r	unrothum_r2_r	elv_angle_r	shoulder_elv_r	shoulder1_r2_r	shoulder_rot_r	elbow_flex_r	pro_sup_r	deviation_r	flexion_r	cmc_flexion_r	cmc_abduction_r	mp_flexion_r	ip_flexion_r	mcp2_flexion_r	mcp2_abduction_r	pm2_flexion_r	md2_flexion_r	mcp3_flexion_r	mcp3_abduction_r	pm3_flexion_r	md3_flexion_r	mcp4_flexion_r	mcp4_abduction_r	pm4_flexion_r	md4_flexion_r	mcp5_flexion_r	mcp5_abduction_r	pm5_flexion_r	md5_flexion_r	sternoclavicular_r2_l	sternoclavicular_r3_l	unrotscap_r3_l	unrotscap_r2_l	acromioclavicular_r2_l	acromioclavicular_r3_l	acromioclavicular_r1_l	unrothum_r1_l	unrothum_r3_l	unrothum_r2_l	elv_angle_l	shoulder_elv_l	shoulder1_r2_l	shoulder_rot_l	elbow_flex_l	pro_sup_l	deviation_l	flexion_l	cmc_flexion_l	cmc_abduction_l	mp_flexion_l	ip_flexion_l	mcp2_flexion_l	mcp2_abduction_l	pm2_flexion_l	md2_flexion_l	mcp3_flexion_l	mcp3_abduction_l	pm3_flexion_l	md3_flexion_l	mcp4_flexion_l	mcp4_abduction_l	pm4_flexion_l	md4_flexion_l	mcp5_flexion_l	mcp5_abduction_l	pm5_flexion_l	md5_flexion_l	hip_flexion_r	hip_adduction_r	hip_rotation_r	knee_angle_r	knee_angle_rotation2_r	knee_angle_rotation3_r	knee_angle_translation2_r	knee_angle_translation1_r	ankle_angle_r	subtalar_angle_r	mtp_angle_r	knee_angle_beta_rotation1_r	knee_angle_beta_translation2_r	knee_angle_beta_translation1_r	hip_flexion_l	hip_adduction_l	hip_rotation_l	knee_angle_l	knee_angle_rotation2_l	knee_angle_rotation3_l	knee_angle_translation2_l	knee_angle_translation1_l	ankle_angle_l	subtalar_angle_l	mtp_angle_l	knee_angle_beta_rotation1_l	knee_angle_beta_translation2_l	knee_angle_beta_translation1_l
4.05371000	-89.53622435	0.01992432	0.08102360	0.00007575	0.82468951	-0.00093503	0.24251019	0.01032680	-0.07109128	0.15590980	-0.00000000	0.00000000	0.04486439	0.00187018	-0.00268583	0.04947208	0.00253316	-0.00268583	0.05601985	0.00258273	-0.00221165	0.06184010	0.00194144	-0.00205383	-0.00829387	0.00351290	-0.00351290	0.00829387	-0.00167934	0.01357179	0.00610045	-0.00610045	-0.01357179	0.00167934	-0.00002189	0.03427219	0.00002189	2.55236396	-0.72951803	-2.56004398	1.58261910	-0.27323649	18.17699266	-17.17758545	-148.54671652	22.10209666	2.18399329	-0.86426269	-0.49285109	-0.31208799	1.47251278	-0.77034600	1.72480825	-2.23425050	0.42552615	-0.84400841	-0.19317117	-0.36009880	2.70537251	-1.29859512	-3.31786608	-0.44445525	-0.00586068	0.00248231	-0.00248231	0.00586068	-0.00118667	0.00959021	0.00431075	-0.00431075	-0.00959021	0.00118667	0.00079124	0.02421769	-0.00079124	2.25389643	-0.57207906	-2.03496898	0.44819496	-3.83136076	-6.50340448	6.85774950	-8.23830866	-216.24683730	8.60719428	0.66473872	-0.09321963	1.06718548	6.50100862	-0.13479518	7.12386770	-5.37641046	3.53155158	-2.83353507	9.19668265	-4.51902162	4.38198843	-3.15346433	0.33753273	0.27346871	1.11655236	0.02745231	-0.47614983	0.06978909	0.00551668	0.02577322	0.00000716	0.00000390	-33.59885646	-8.31991036	-80.63885571	0.60356570	-0.01088751	0.05240086	1.27391434	-0.03461111	-0.12044166	0.48091321	0.03790595	-0.17701432	-0.00004926	0.00002619	-33.04735807	-8.22694351	-78.07750630	0.60856781	-0.01123691	0.05229075
4.13183000	-89.52348219	0.02040883	0.08322966	0.00007793	0.82467553	-0.00095985	0.24919967	0.01056936	-0.07303122	0.16021047	-0.00000000	0.00000000	0.04610194	0.00191411	-0.00275912	0.05083673	0.00259266	-0.00275912	0.05756512	0.00264340	-0.00227200	0.06354592	0.00198704	-0.00210987	-0.00854317	0.00361849	-0.00361849	0.00854317	-0.00172982	0.01397974	0.00628382	-0.00628382	-0.01397974	0.00172982	-0.00002220	0.03530236	0.00002220	2.62247784	-0.74939682	-2.63201260	1.62347897	-0.28145492	17.13152442	-17.38297618	-149.89610199	19.68315651	2.24069061	-0.88753713	-0.50572882	-0.32030191	1.51187999	-0.79203985	1.76597876	-2.28985273	0.43640067	-0.86878108	-0.19452593	-0.36972118	2.77446046	-1.33323169	-3.40104776	-0.45545548	-0.00603425	0.00255583	-0.00255583	0.00603425	-0.00122181	0.00987423	0.00443842	-0.00443842	-0.00987423	0.00122181	0.00080838	0.02493493	-0.00080838	2.31651657	-0.58893428	-2.09048886	0.46188250	-3.93118993	-6.14205490	7.18034888	-10.06230945	-217.47445912	8.82605515	0.68105179	-0.09375252	1.09495366	6.66731979	-0.14016913	7.31361458	-5.51993768	3.61425953	-2.91407496	9.48549809	-4.66193778	4.49319903	-3.23374318	0.34343660	0.27987438	1.14564415	0.02783668	-0.49303236	0.06251387	0.00494176	0.02308788	0.00000641	0.00000351	-34.53609561	-8.50980811	-87.00415169	0.60340765	-0.01088132	0.05240277	1.30749588	-0.03542431	-0.12979885	0.48551287	0.03826721	-0.17870077	-0.00004973	0.00002644	-33.97048736	-8.41699323	-84.36907693	0.60858027	-0.01124082	0.05228950
4.20995000	-89.51056560	0.02089775	0.08544304	0.00008011	0.82466099	-0.00098495	0.25598259	0.01081368	-0.07497762	0.16457120	-0.00000000	0.00000000	0.04735678	0.00195836	-0.00283265	0.05222045	0.00265260	-0.00283265	0.05913198	0.00270450	-0.00233255	0.06527556	0.00203297	-0.00216610	-0.00879586	0.00372552	-0.00372552	0.00879586	-0.00178098	0.01439322	0.00646968	-0.00646968	-0.01439322	0.00178098	-0.00002273	0.03634651	0.00002273	2.69335814	-0.76953104	-2.70480185	1.66463977	-0.28966860	16.03315962	-17.54508287	-151.22288967	17.19569149	2.29776580	-0.91093664	-0.51870905	-0.32858401	1.55155212	-0.81384904	1.80735121	-2.34581882	0.44734820	-0.89371378	-0.19580294	-0.37944289	2.84402114	-1.36806593	-3.48477778	-0.46652389	-0.00620967	0.00263013	-0.00263013	0.00620967	-0.00125733	0.01016127	0.00456744	-0.00456744	-0.01016127	0.00125733	0.00082567	0.02565978	-0.00082567	2.37982166	-0.60595831	-2.14655452	0.47548153	-4.03189938	-5.77869047	7.50439760	-11.88264427	-218.75398424	9.04665507	0.69775650	-0.09415934	1.12301091	6.83500483	-0.14539042	7.50537232	-5.66498449	3.69738341	-2.99530432	9.77888497	-4.80731780	4.60541067	-3.31447080	0.34933564	0.28632950	1.17515608	0.02819016	-0.51022003	0.05569618	0.00440294	0.02057113	0.00000571	0.00000313	-35.47308242	-8.69682327	-93.34415689	0.60325734	-0.01087551	0.05240457	1.34151367	-0.03629110	-0.13934041	0.49059953	0.03866669	-0.18056562	-0.00005025	0.00002672	-34.89357577	-8.60421642	-90.63139172	0.60859293	-0.01124513	0.05228811
4.36188000	-89.48494093	0.02186179	0.08976507	0.00008433	0.82463113	-0.00103459	0.26944424	0.01129426	-0.07877840	0.17322570	-0.00000000	0.00000000	0.04984718	0.00204539	-0.00297625	0.05496662	0.00277048	-0.00297625	0.06224162	0.00282469	-0.00245080	0.06870828	0.00212332	-0.00227591	-0.00929710	0.00393782	-0.00393782	0.00929710	-0.00188247	0.01521344	0.00683837	-0.00683837	-0.01521344	0.00188247	-0.00002443	0.03841778	0.00002443	2.83340598	-0.80942209	-2.84873886	1.74555776	-0.30564672	13.74320583	-17.72760216	-153.75658934	12.22600637	2.40987607	-0.95681216	-0.54425210	-0.34488710	1.62960668	-0.85660863	1.88837585	-2.45569654	0.46887330	-0.94267999	-0.19807086	-0.39863501	2.98065931	-1.43640045	-3.64916919	-0.48824920	-0.00655611	0.00277686	-0.00277686	0.00655611	-0.00132748	0.01072818	0.00482226	-0.00482226	-0.01072818	0.00132748	0.00085974	0.02709136	-0.00085974	2.50489601	-0.63952873	-2.25716463	0.50162092	-4.23029158	-5.08759765	8.13235643	-15.33865438	-221.38417969	9.48065912	0.73140523	-0.09457648	1.17841022	7.16505872	-0.15507559	7.88409895	-5.95145606	3.86022367	-3.15522732	10.36267271	-5.09721390	4.82652932	-3.47273375	0.36080190	0.29902291	1.23378170	0.02878749	-0.54449084	0.04390034	0.00347057	0.01621605	0.00000450	0.00000249	-37.29322839	-9.05194933	-105.61832414	0.60299223	-0.01086547	0.05240767	1.40893966	-0.03813730	-0.15837871	0.50201132	0.03956280	-0.18474883	-0.00005142	0.00002733	-36.68739226	-8.95994149	-102.74235190	0.60861707	-0.01125482	0.05228500
4.46245000	-89.46760913	0.02251001	0.09263600	0.00008711	0.82461019	-0.00106804	0.27855315	0.01161660	-0.08130313	0.17908182	-0.00000000	0.00000000	0.05153233	0.00210377	-0.00307163	0.05682484	0.00284955	-0.00307163	0.06434578	0.00290531	-0.00252934	0.07103105	0.00218392	-0.00234885	-0.00963617	0.00408144	-0.00408144	0.00963617	-0.00195113	0.01576829	0.00708777	-0.00708777	-0.01576829	0.00195113	-0.00002606	0.03981890	0.00002606	2.92770903	-0.83636152	-2.94576570	1.79975274	-0.31624910	12.11419209	-17.74511540	-155.41620573	8.89917970	2.48492511	-0.98745208	-0.56138269	-0.35582215	1.68195905	-0.88517535	1.94240464	-2.52917399	0.48332181	-0.97545628	-0.19942220	-0.41154696	3.07210067	-1.48208292	-3.75909933	-0.50277921	-0.00678932	0.00287564	-0.00287564	0.00678932	-0.00137470	0.01110979	0.00499379	-0.00499379	-0.01110979	0.00137470	0.00088264	0.02805502	-0.00088264	2.58910884	-0.66207909	-2.33153441	0.51868931	-4.36345422	-4.65151787	8.54366220	-17.52976337	-223.22321371	9.77154985	0.75453103	-0.09457038	1.21569024	7.38638568	-0.16114112	8.13902824	-6.14428992	3.96884637	-3.26249645	10.75878555	-5.29438970	4.97499298	-3.57840859	0.36839269	0.30752447	1.27350239	0.02911660	-0.56776380	0.03727131	0.00294652	0.01376823	0.00000382	0.00000213	-38.49546868	-9.28057357	-113.70983386	0.60284044	-0.01085983	0.05240942	1.45450626	-0.03948106	-0.17129297	0.51076470	0.04025006	-0.18795702	-0.00005232	0.00002780	-37.87276802	-9.18912912	-110.72293706	0.60863159	-0.01126225	0.05228262
4.56303000	-89.44998157	0.02316670	0.09551258	0.00008988	0.82458832	-0.00110197	0.28782053	0.01194257	-0.08383286	0.18503982	-0.00000000	0.00000000	0.05324680	0.00216280	-0.00316721	0.05871539	0.00292951	-0.00316721	0.06648654	0.00298684	-0.00260804	0.07339424	0.00224520	-0.00242193	-0.00998115	0.00422756	-0.00422756	0.00998115	-0.00202098	0.01633280	0.00734151	-0.00734151	-0.01633280	0.00202098	-0.00002811	0.04124444	0.00002811	3.02328080	-0.86372426	-3.04420203	1.85444524	-0.32689913	10.39456782	-17.67466072	-157.07710122	5.59893270	2.56067498	-1.01831008	-0.57869519	-0.36687198	1.73488987	-0.91395923	1.99673141	-2.60323424	0.49796432	-1.00853657	-0.20066105	-0.42462435	3.16434529	-1.52814165	-3.86989513	-0.51743177	-0.00702563	0.00297573	-0.00297573	0.00702563	-0.00142255	0.01149649	0.00516762	-0.00516762	-0.01149649	0.00142255	0.00090583	0.02903155	-0.00090583	2.67444758	-0.68489015	-2.40682481	0.53557809	-4.49806566	-4.23611797	8.95073544	-19.63002209	-225.13612215	10.06527485	0.77833103	-0.09433006	1.25345558	7.60995048	-0.16693631	8.39733301	-6.33968243	4.07809310	-3.37088292	11.16265057	-5.49582609	5.12510336	-3.68480667	0.37598778	0.31610312	1.31396375	0.02939284	-0.59147967	0.03167491	0.00250407	0.01170150	0.00000325	0.00000182	-39.69473598	-9.50391668	-121.75544285	0.60271072	-0.01085507	0.05241089	1.50082446	-0.04092546	-0.18442140	0.52055059	0.04101828	-0.19154310	-0.00005332	0.00002833	-39.05565436	-9.41318617	-118.66902611	0.60864372	-0.01127055	0.05227995
4.66070000	-89.43257887	0.02381289	0.09830985	0.00009254	0.82456617	-0.00113538	0.29697256	0.01226284	-0.08629287	0.19092366	-0.00000000	0.00000000	0.05493992	0.00222080	-0.00326014	0.06058240	0.00300807	-0.00326014	0.06860066	0.00306694	-0.00268457	0.07572800	0.00230541	-0.00249300	-0.01032195	0.00437190	-0.00437190	0.01032195	-0.00208998	0.01689046	0.00759218	-0.00759218	-0.01689046	0.00208998	-0.00003050	0.04265269	0.00003050	3.11730514	-0.89070146	-3.14116337	1.90803141	-0.33731506	8.63871236	-17.51771411	-158.70352364	2.46564088	2.63494405	-1.04848728	-0.59568688	-0.37771378	1.78688069	-0.94212879	2.04976155	-2.67570736	0.51240428	-1.04096801	-0.20176308	-0.43748279	3.25471142	-1.57325055	-3.97830647	-0.53178273	-0.00725812	0.00307421	-0.00307421	0.00725812	-0.00146962	0.01187693	0.00533862	-0.00533862	-0.01187693	0.00146962	0.00092862	0.02999225	-0.00092862	2.75839751	-0.70729438	-2.48082504	0.55181859	-4.63016465	-3.85269616	9.34222974	-21.58047355	-227.06153854	10.35320439	0.80208382	-0.09386454	1.29059607	7.82917727	-0.17231080	8.65141823	-6.53189018	4.18474982	-3.47720843	11.56232195	-5.69557499	5.27243716	-3.78882363	0.38337064	0.32450700	1.35397576	0.02961097	-0.61491274	0.02730044	0.00215819	0.01008590	0.00000280	0.00000159	-40.85586204	-9.71569329	-129.46413576	0.60260833	-0.01085134	0.05241204	1.54653055	-0.04242690	-0.19734711	0.53110133	0.04184641	-0.19540884	-0.00005439	0.00002890	-40.20137371	-9.62581509	-126.31349604	0.60865193	-0.01127950	0.05227707
